<mxfile host="app.diagrams.net" agent="Mozilla/5.0 (Windows NT 10.0; Win64; x64) AppleWebKit/537.36 (KHTML, like Gecko) Chrome/138.0.0.0 Safari/537.36" version="28.1.0">
  <diagram id="C5RBs43oDa-KdzZeNtuy" name="Page-1">
    <mxGraphModel dx="1449" dy="2772" grid="1" gridSize="10" guides="1" tooltips="1" connect="1" arrows="1" fold="1" page="1" pageScale="1" pageWidth="827" pageHeight="1169" math="0" shadow="0">
      <root>
        <mxCell id="WIyWlLk6GJQsqaUBKTNV-0" />
        <mxCell id="WIyWlLk6GJQsqaUBKTNV-1" parent="WIyWlLk6GJQsqaUBKTNV-0" />
        <mxCell id="gDzdNd2LTdi7sWeR8Vei-125" value="Main" style="swimlane;fontStyle=0;align=center;verticalAlign=top;childLayout=stackLayout;horizontal=1;startSize=26;horizontalStack=0;resizeParent=1;resizeLast=0;collapsible=1;marginBottom=0;rounded=0;shadow=0;strokeWidth=1;" parent="WIyWlLk6GJQsqaUBKTNV-1" vertex="1" collapsed="1">
          <mxGeometry x="35" y="-971" width="160" height="26" as="geometry">
            <mxRectangle x="160" y="-1150" width="310" height="512" as="alternateBounds" />
          </mxGeometry>
        </mxCell>
        <mxCell id="gDzdNd2LTdi7sWeR8Vei-126" value="width:int" style="text;align=left;verticalAlign=top;spacingLeft=4;spacingRight=4;overflow=hidden;rotatable=0;points=[[0,0.5],[1,0.5]];portConstraint=eastwest;imageHeight=20;" parent="gDzdNd2LTdi7sWeR8Vei-125" vertex="1">
          <mxGeometry y="26" width="310" height="22" as="geometry" />
        </mxCell>
        <mxCell id="gDzdNd2LTdi7sWeR8Vei-127" value="height: int" style="text;align=left;verticalAlign=top;spacingLeft=4;spacingRight=4;overflow=hidden;rotatable=0;points=[[0,0.5],[1,0.5]];portConstraint=eastwest;rounded=0;shadow=0;html=0;imageHeight=20;" parent="gDzdNd2LTdi7sWeR8Vei-125" vertex="1">
          <mxGeometry y="48" width="310" height="22" as="geometry" />
        </mxCell>
        <mxCell id="gDzdNd2LTdi7sWeR8Vei-128" value="port_manager: Port_Manager" style="text;align=left;verticalAlign=top;spacingLeft=4;spacingRight=4;overflow=hidden;rotatable=0;points=[[0,0.5],[1,0.5]];portConstraint=eastwest;rounded=0;shadow=0;html=0;imageHeight=20;" parent="gDzdNd2LTdi7sWeR8Vei-125" vertex="1">
          <mxGeometry y="70" width="310" height="22" as="geometry" />
        </mxCell>
        <mxCell id="gDzdNd2LTdi7sWeR8Vei-133" value="connection_display: Connection_Display" style="text;align=left;verticalAlign=top;spacingLeft=4;spacingRight=4;overflow=hidden;rotatable=0;points=[[0,0.5],[1,0.5]];portConstraint=eastwest;rounded=0;shadow=0;html=0;imageHeight=20;" parent="gDzdNd2LTdi7sWeR8Vei-125" vertex="1">
          <mxGeometry y="92" width="310" height="22" as="geometry" />
        </mxCell>
        <mxCell id="DOuCb__6yNhxI4UDkO2R-0" value="code_handler: Code_Handler" style="text;align=left;verticalAlign=top;spacingLeft=4;spacingRight=4;overflow=hidden;rotatable=0;points=[[0,0.5],[1,0.5]];portConstraint=eastwest;rounded=0;shadow=0;html=0;imageHeight=20;" parent="gDzdNd2LTdi7sWeR8Vei-125" vertex="1">
          <mxGeometry y="114" width="310" height="22" as="geometry" />
        </mxCell>
        <mxCell id="DOuCb__6yNhxI4UDkO2R-3" value="code_input: Code_Input" style="text;align=left;verticalAlign=top;spacingLeft=4;spacingRight=4;overflow=hidden;rotatable=0;points=[[0,0.5],[1,0.5]];portConstraint=eastwest;rounded=0;shadow=0;html=0;imageHeight=20;" parent="gDzdNd2LTdi7sWeR8Vei-125" vertex="1">
          <mxGeometry y="136" width="310" height="22" as="geometry" />
        </mxCell>
        <mxCell id="DOuCb__6yNhxI4UDkO2R-1" value="right_frame: CTkFrame" style="text;align=left;verticalAlign=top;spacingLeft=4;spacingRight=4;overflow=hidden;rotatable=0;points=[[0,0.5],[1,0.5]];portConstraint=eastwest;rounded=0;shadow=0;html=0;imageHeight=20;" parent="gDzdNd2LTdi7sWeR8Vei-125" vertex="1">
          <mxGeometry y="158" width="310" height="22" as="geometry" />
        </mxCell>
        <mxCell id="DOuCb__6yNhxI4UDkO2R-4" value="text_output: CTkTextbox" style="text;align=left;verticalAlign=top;spacingLeft=4;spacingRight=4;overflow=hidden;rotatable=0;points=[[0,0.5],[1,0.5]];portConstraint=eastwest;rounded=0;shadow=0;html=0;imageHeight=20;" parent="gDzdNd2LTdi7sWeR8Vei-125" vertex="1">
          <mxGeometry y="180" width="310" height="22" as="geometry" />
        </mxCell>
        <mxCell id="DOuCb__6yNhxI4UDkO2R-2" value="top_menu: Top_Menu" style="text;align=left;verticalAlign=top;spacingLeft=4;spacingRight=4;overflow=hidden;rotatable=0;points=[[0,0.5],[1,0.5]];portConstraint=eastwest;rounded=0;shadow=0;html=0;imageHeight=20;" parent="gDzdNd2LTdi7sWeR8Vei-125" vertex="1">
          <mxGeometry y="202" width="310" height="22" as="geometry" />
        </mxCell>
        <mxCell id="DOuCb__6yNhxI4UDkO2R-5" value="turtle_view: Turtle_Simulation" style="text;align=left;verticalAlign=top;spacingLeft=4;spacingRight=4;overflow=hidden;rotatable=0;points=[[0,0.5],[1,0.5]];portConstraint=eastwest;rounded=0;shadow=0;html=0;imageHeight=20;" parent="gDzdNd2LTdi7sWeR8Vei-125" vertex="1">
          <mxGeometry y="224" width="310" height="22" as="geometry" />
        </mxCell>
        <mxCell id="DOuCb__6yNhxI4UDkO2R-7" value="button_frame: CTkFrame" style="text;align=left;verticalAlign=top;spacingLeft=4;spacingRight=4;overflow=hidden;rotatable=0;points=[[0,0.5],[1,0.5]];portConstraint=eastwest;rounded=0;shadow=0;html=0;imageHeight=20;" parent="gDzdNd2LTdi7sWeR8Vei-125" vertex="1">
          <mxGeometry y="246" width="310" height="22" as="geometry" />
        </mxCell>
        <mxCell id="DOuCb__6yNhxI4UDkO2R-6" value="run_button: CTkButton" style="text;align=left;verticalAlign=top;spacingLeft=4;spacingRight=4;overflow=hidden;rotatable=0;points=[[0,0.5],[1,0.5]];portConstraint=eastwest;rounded=0;shadow=0;html=0;imageHeight=20;" parent="gDzdNd2LTdi7sWeR8Vei-125" vertex="1">
          <mxGeometry y="268" width="310" height="22" as="geometry" />
        </mxCell>
        <mxCell id="H0IykVh78bHlKfV0S87f-44" value="stop_button: CTkButton" style="text;align=left;verticalAlign=top;spacingLeft=4;spacingRight=4;overflow=hidden;rotatable=0;points=[[0,0.5],[1,0.5]];portConstraint=eastwest;rounded=0;shadow=0;html=0;imageHeight=20;" parent="gDzdNd2LTdi7sWeR8Vei-125" vertex="1">
          <mxGeometry y="290" width="310" height="22" as="geometry" />
        </mxCell>
        <mxCell id="gDzdNd2LTdi7sWeR8Vei-129" value="" style="line;html=1;strokeWidth=1;align=left;verticalAlign=middle;spacingTop=-1;spacingLeft=3;spacingRight=3;rotatable=0;labelPosition=right;points=[];portConstraint=eastwest;" parent="gDzdNd2LTdi7sWeR8Vei-125" vertex="1">
          <mxGeometry y="312" width="310" height="8" as="geometry" />
        </mxCell>
        <mxCell id="gDzdNd2LTdi7sWeR8Vei-130" value="on_closing(root: CTk):void" style="text;align=left;verticalAlign=top;spacingLeft=4;spacingRight=4;overflow=hidden;rotatable=0;points=[[0,0.5],[1,0.5]];portConstraint=eastwest;imageHeight=20;" parent="gDzdNd2LTdi7sWeR8Vei-125" vertex="1">
          <mxGeometry y="320" width="310" height="22" as="geometry" />
        </mxCell>
        <mxCell id="gDzdNd2LTdi7sWeR8Vei-131" value="button_setup(frame:CTkFrame, text: string,Â &#xa;command: function, state: string): CTkButton" style="text;align=left;verticalAlign=top;spacingLeft=4;spacingRight=4;overflow=hidden;rotatable=0;points=[[0,0.5],[1,0.5]];portConstraint=eastwest;imageHeight=20;" parent="gDzdNd2LTdi7sWeR8Vei-125" vertex="1">
          <mxGeometry y="342" width="310" height="38" as="geometry" />
        </mxCell>
        <mxCell id="H0IykVh78bHlKfV0S87f-45" value="change_textsize(int):void" style="text;align=left;verticalAlign=top;spacingLeft=4;spacingRight=4;overflow=hidden;rotatable=0;points=[[0,0.5],[1,0.5]];portConstraint=eastwest;imageHeight=20;" parent="gDzdNd2LTdi7sWeR8Vei-125" vertex="1">
          <mxGeometry y="380" width="310" height="22" as="geometry" />
        </mxCell>
        <mxCell id="gDzdNd2LTdi7sWeR8Vei-80" value="update_window(root: CTk, event:Event=None): void" style="text;align=left;verticalAlign=top;spacingLeft=4;spacingRight=4;overflow=hidden;rotatable=0;points=[[0,0.5],[1,0.5]];portConstraint=eastwest;imageHeight=20;" parent="gDzdNd2LTdi7sWeR8Vei-125" vertex="1">
          <mxGeometry y="402" width="310" height="22" as="geometry" />
        </mxCell>
        <mxCell id="hn5UzkTELU9L65x6MkT8-0" value="buttons_layout(horizontal: boolean): void" style="text;align=left;verticalAlign=top;spacingLeft=4;spacingRight=4;overflow=hidden;rotatable=0;points=[[0,0.5],[1,0.5]];portConstraint=eastwest;imageHeight=20;" vertex="1" parent="gDzdNd2LTdi7sWeR8Vei-125">
          <mxGeometry y="424" width="310" height="22" as="geometry" />
        </mxCell>
        <mxCell id="hn5UzkTELU9L65x6MkT8-1" value="clear_text(): void" style="text;align=left;verticalAlign=top;spacingLeft=4;spacingRight=4;overflow=hidden;rotatable=0;points=[[0,0.5],[1,0.5]];portConstraint=eastwest;fontStyle=0;imageHeight=20;" vertex="1" parent="gDzdNd2LTdi7sWeR8Vei-125">
          <mxGeometry y="446" width="310" height="22" as="geometry" />
        </mxCell>
        <mxCell id="hn5UzkTELU9L65x6MkT8-2" value="run_text(): void" style="text;align=left;verticalAlign=top;spacingLeft=4;spacingRight=4;overflow=hidden;rotatable=0;points=[[0,0.5],[1,0.5]];portConstraint=eastwest;fontStyle=0;imageHeight=20;" vertex="1" parent="gDzdNd2LTdi7sWeR8Vei-125">
          <mxGeometry y="468" width="310" height="22" as="geometry" />
        </mxCell>
        <mxCell id="hn5UzkTELU9L65x6MkT8-3" value="stop(): void" style="text;align=left;verticalAlign=top;spacingLeft=4;spacingRight=4;overflow=hidden;rotatable=0;points=[[0,0.5],[1,0.5]];portConstraint=eastwest;fontStyle=0;imageHeight=20;" vertex="1" parent="gDzdNd2LTdi7sWeR8Vei-125">
          <mxGeometry y="490" width="310" height="22" as="geometry" />
        </mxCell>
        <mxCell id="hn5UzkTELU9L65x6MkT8-12" value="File_Handler" style="swimlane;fontStyle=0;align=center;verticalAlign=top;childLayout=stackLayout;horizontal=1;startSize=26;horizontalStack=0;resizeParent=1;resizeLast=0;collapsible=1;marginBottom=0;rounded=0;shadow=0;strokeWidth=1;" vertex="1" parent="WIyWlLk6GJQsqaUBKTNV-1">
          <mxGeometry x="277" y="-760" width="280" height="190" as="geometry">
            <mxRectangle x="612" y="-764" width="160" height="26" as="alternateBounds" />
          </mxGeometry>
        </mxCell>
        <mxCell id="hn5UzkTELU9L65x6MkT8-20" value="set_text: function" style="text;align=left;verticalAlign=top;spacingLeft=4;spacingRight=4;overflow=hidden;rotatable=0;points=[[0,0.5],[1,0.5]];portConstraint=eastwest;" vertex="1" parent="hn5UzkTELU9L65x6MkT8-12">
          <mxGeometry y="26" width="280" height="22" as="geometry" />
        </mxCell>
        <mxCell id="hn5UzkTELU9L65x6MkT8-21" value="get_text: function" style="text;align=left;verticalAlign=top;spacingLeft=4;spacingRight=4;overflow=hidden;rotatable=0;points=[[0,0.5],[1,0.5]];portConstraint=eastwest;" vertex="1" parent="hn5UzkTELU9L65x6MkT8-12">
          <mxGeometry y="48" width="280" height="22" as="geometry" />
        </mxCell>
        <mxCell id="hn5UzkTELU9L65x6MkT8-13" value="insert_text: function" style="text;align=left;verticalAlign=top;spacingLeft=4;spacingRight=4;overflow=hidden;rotatable=0;points=[[0,0.5],[1,0.5]];portConstraint=eastwest;" vertex="1" parent="hn5UzkTELU9L65x6MkT8-12">
          <mxGeometry y="70" width="280" height="22" as="geometry" />
        </mxCell>
        <mxCell id="hn5UzkTELU9L65x6MkT8-17" value="" style="line;html=1;strokeWidth=1;align=left;verticalAlign=middle;spacingTop=-1;spacingLeft=3;spacingRight=3;rotatable=0;labelPosition=right;points=[];portConstraint=eastwest;" vertex="1" parent="hn5UzkTELU9L65x6MkT8-12">
          <mxGeometry y="92" width="280" height="8" as="geometry" />
        </mxCell>
        <mxCell id="hn5UzkTELU9L65x6MkT8-18" value="load(): void" style="text;align=left;verticalAlign=top;spacingLeft=4;spacingRight=4;overflow=hidden;rotatable=0;points=[[0,0.5],[1,0.5]];portConstraint=eastwest;" vertex="1" parent="hn5UzkTELU9L65x6MkT8-12">
          <mxGeometry y="100" width="280" height="22" as="geometry" />
        </mxCell>
        <mxCell id="hn5UzkTELU9L65x6MkT8-22" value="save(): void" style="text;align=left;verticalAlign=top;spacingLeft=4;spacingRight=4;overflow=hidden;rotatable=0;points=[[0,0.5],[1,0.5]];portConstraint=eastwest;" vertex="1" parent="hn5UzkTELU9L65x6MkT8-12">
          <mxGeometry y="122" width="280" height="22" as="geometry" />
        </mxCell>
        <mxCell id="hn5UzkTELU9L65x6MkT8-23" value="get_available_inserts(shape_type:string): string[]" style="text;align=left;verticalAlign=top;spacingLeft=4;spacingRight=4;overflow=hidden;rotatable=0;points=[[0,0.5],[1,0.5]];portConstraint=eastwest;" vertex="1" parent="hn5UzkTELU9L65x6MkT8-12">
          <mxGeometry y="144" width="280" height="22" as="geometry" />
        </mxCell>
        <mxCell id="hn5UzkTELU9L65x6MkT8-19" value="load_insert_text(value:string, folder:string): void" style="text;align=left;verticalAlign=top;spacingLeft=4;spacingRight=4;overflow=hidden;rotatable=0;points=[[0,0.5],[1,0.5]];portConstraint=eastwest;" vertex="1" parent="hn5UzkTELU9L65x6MkT8-12">
          <mxGeometry y="166" width="280" height="22" as="geometry" />
        </mxCell>
        <mxCell id="hn5UzkTELU9L65x6MkT8-24" value="Info_Page" style="swimlane;fontStyle=0;align=center;verticalAlign=top;childLayout=stackLayout;horizontal=1;startSize=26;horizontalStack=0;resizeParent=1;resizeLast=0;collapsible=1;marginBottom=0;rounded=0;shadow=0;strokeWidth=1;" vertex="1" parent="WIyWlLk6GJQsqaUBKTNV-1">
          <mxGeometry x="635" y="-1110" width="170" height="62" as="geometry">
            <mxRectangle x="910" y="-1110" width="160" height="26" as="alternateBounds" />
          </mxGeometry>
        </mxCell>
        <mxCell id="hn5UzkTELU9L65x6MkT8-28" value="" style="line;html=1;strokeWidth=1;align=left;verticalAlign=middle;spacingTop=-1;spacingLeft=3;spacingRight=3;rotatable=0;labelPosition=right;points=[];portConstraint=eastwest;" vertex="1" parent="hn5UzkTELU9L65x6MkT8-24">
          <mxGeometry y="26" width="170" height="8" as="geometry" />
        </mxCell>
        <mxCell id="hn5UzkTELU9L65x6MkT8-29" value="display_page(): void" style="text;align=left;verticalAlign=top;spacingLeft=4;spacingRight=4;overflow=hidden;rotatable=0;points=[[0,0.5],[1,0.5]];portConstraint=eastwest;" vertex="1" parent="hn5UzkTELU9L65x6MkT8-24">
          <mxGeometry y="34" width="170" height="22" as="geometry" />
        </mxCell>
        <mxCell id="hn5UzkTELU9L65x6MkT8-81" value="Top_Menu" style="swimlane;fontStyle=0;align=center;verticalAlign=top;childLayout=stackLayout;horizontal=1;startSize=26;horizontalStack=0;resizeParent=1;resizeLast=0;collapsible=1;marginBottom=0;rounded=0;shadow=0;strokeWidth=1;" vertex="1" parent="WIyWlLk6GJQsqaUBKTNV-1">
          <mxGeometry x="272" y="-1149" width="290" height="319" as="geometry">
            <mxRectangle x="550" y="140" width="160" height="26" as="alternateBounds" />
          </mxGeometry>
        </mxCell>
        <mxCell id="hn5UzkTELU9L65x6MkT8-83" value="file_handler: File_Handler" style="text;align=left;verticalAlign=top;spacingLeft=4;spacingRight=4;overflow=hidden;rotatable=0;points=[[0,0.5],[1,0.5]];portConstraint=eastwest;imageWidth=24;imageHeight=20;" vertex="1" parent="hn5UzkTELU9L65x6MkT8-81">
          <mxGeometry y="26" width="290" height="22" as="geometry" />
        </mxCell>
        <mxCell id="hn5UzkTELU9L65x6MkT8-82" value="port_manager: Port_Manager" style="text;align=left;verticalAlign=top;spacingLeft=4;spacingRight=4;overflow=hidden;rotatable=0;points=[[0,0.5],[1,0.5]];portConstraint=eastwest;imageWidth=24;imageHeight=20;" vertex="1" parent="hn5UzkTELU9L65x6MkT8-81">
          <mxGeometry y="48" width="290" height="20" as="geometry" />
        </mxCell>
        <mxCell id="hn5UzkTELU9L65x6MkT8-84" value="down: float" style="text;align=left;verticalAlign=top;spacingLeft=4;spacingRight=4;overflow=hidden;rotatable=0;points=[[0,0.5],[1,0.5]];portConstraint=eastwest;imageWidth=24;imageHeight=20;" vertex="1" parent="hn5UzkTELU9L65x6MkT8-81">
          <mxGeometry y="68" width="290" height="22" as="geometry" />
        </mxCell>
        <mxCell id="hn5UzkTELU9L65x6MkT8-85" value="setup_wizard: Setup_Wizard" style="text;align=left;verticalAlign=top;spacingLeft=4;spacingRight=4;overflow=hidden;rotatable=0;points=[[0,0.5],[1,0.5]];portConstraint=eastwest;imageWidth=24;imageHeight=20;" vertex="1" parent="hn5UzkTELU9L65x6MkT8-81">
          <mxGeometry y="90" width="290" height="22" as="geometry" />
        </mxCell>
        <mxCell id="hn5UzkTELU9L65x6MkT8-86" value="port_label: CTkLabel" style="text;align=left;verticalAlign=top;spacingLeft=4;spacingRight=4;overflow=hidden;rotatable=0;points=[[0,0.5],[1,0.5]];portConstraint=eastwest;imageWidth=24;imageHeight=20;" vertex="1" parent="hn5UzkTELU9L65x6MkT8-81">
          <mxGeometry y="112" width="290" height="22" as="geometry" />
        </mxCell>
        <mxCell id="hn5UzkTELU9L65x6MkT8-87" value="" style="line;html=1;strokeWidth=1;align=left;verticalAlign=middle;spacingTop=-1;spacingLeft=3;spacingRight=3;rotatable=0;labelPosition=right;points=[];portConstraint=eastwest;" vertex="1" parent="hn5UzkTELU9L65x6MkT8-81">
          <mxGeometry y="134" width="290" height="8" as="geometry" />
        </mxCell>
        <mxCell id="hn5UzkTELU9L65x6MkT8-88" value="make_top_menu_button(top_bar_frame: CTkFrame,&#xa;text: string): Menubutton" style="text;align=left;verticalAlign=top;spacingLeft=4;spacingRight=4;overflow=hidden;rotatable=0;points=[[0,0.5],[1,0.5]];portConstraint=eastwest;imageWidth=24;imageHeight=20;" vertex="1" parent="hn5UzkTELU9L65x6MkT8-81">
          <mxGeometry y="142" width="290" height="38" as="geometry" />
        </mxCell>
        <mxCell id="hn5UzkTELU9L65x6MkT8-89" value="make_connection_dropdown(): void" style="text;align=left;verticalAlign=top;spacingLeft=4;spacingRight=4;overflow=hidden;rotatable=0;points=[[0,0.5],[1,0.5]];portConstraint=eastwest;imageWidth=24;imageHeight=20;" vertex="1" parent="hn5UzkTELU9L65x6MkT8-81">
          <mxGeometry y="180" width="290" height="22" as="geometry" />
        </mxCell>
        <mxCell id="hn5UzkTELU9L65x6MkT8-90" value="select_port(choice: string): void" style="text;align=left;verticalAlign=top;spacingLeft=4;spacingRight=4;overflow=hidden;rotatable=0;points=[[0,0.5],[1,0.5]];portConstraint=eastwest;imageWidth=24;imageHeight=20;" vertex="1" parent="hn5UzkTELU9L65x6MkT8-81">
          <mxGeometry y="202" width="290" height="22" as="geometry" />
        </mxCell>
        <mxCell id="hn5UzkTELU9L65x6MkT8-91" value="refresh_ports_list(): void" style="text;align=left;verticalAlign=top;spacingLeft=4;spacingRight=4;overflow=hidden;rotatable=0;points=[[0,0.5],[1,0.5]];portConstraint=eastwest;imageWidth=24;imageHeight=20;" vertex="1" parent="hn5UzkTELU9L65x6MkT8-81">
          <mxGeometry y="224" width="290" height="22" as="geometry" />
        </mxCell>
        <mxCell id="hn5UzkTELU9L65x6MkT8-92" value="set_pen_view(): void" style="text;align=left;verticalAlign=top;spacingLeft=4;spacingRight=4;overflow=hidden;rotatable=0;points=[[0,0.5],[1,0.5]];portConstraint=eastwest;imageWidth=24;imageHeight=20;" vertex="1" parent="hn5UzkTELU9L65x6MkT8-81">
          <mxGeometry y="246" width="290" height="22" as="geometry" />
        </mxCell>
        <mxCell id="hn5UzkTELU9L65x6MkT8-93" value="down_slider_event(value: float): void" style="text;align=left;verticalAlign=top;spacingLeft=4;spacingRight=4;overflow=hidden;rotatable=0;points=[[0,0.5],[1,0.5]];portConstraint=eastwest;imageWidth=24;imageHeight=20;" vertex="1" parent="hn5UzkTELU9L65x6MkT8-81">
          <mxGeometry y="268" width="290" height="22" as="geometry" />
        </mxCell>
        <mxCell id="hn5UzkTELU9L65x6MkT8-94" value="save(): void" style="text;align=left;verticalAlign=top;spacingLeft=4;spacingRight=4;overflow=hidden;rotatable=0;points=[[0,0.5],[1,0.5]];portConstraint=eastwest;imageWidth=24;imageHeight=20;" vertex="1" parent="hn5UzkTELU9L65x6MkT8-81">
          <mxGeometry y="290" width="290" height="22" as="geometry" />
        </mxCell>
        <mxCell id="hn5UzkTELU9L65x6MkT8-96" value="has a" style="endArrow=open;html=1;endSize=12;startArrow=none;startSize=14;startFill=0;edgeStyle=orthogonalEdgeStyle;rounded=0;entryX=0;entryY=0.5;entryDx=0;entryDy=0;exitX=1;exitY=0.5;exitDx=0;exitDy=0;" edge="1" parent="WIyWlLk6GJQsqaUBKTNV-1" source="hn5UzkTELU9L65x6MkT8-88" target="hn5UzkTELU9L65x6MkT8-24">
          <mxGeometry x="0.6537" y="13" relative="1" as="geometry">
            <mxPoint x="565" y="-980" as="sourcePoint" />
            <mxPoint x="165" y="-150" as="targetPoint" />
            <mxPoint as="offset" />
            <Array as="points">
              <mxPoint x="585" y="-988" />
              <mxPoint x="585" y="-1079" />
            </Array>
          </mxGeometry>
        </mxCell>
        <mxCell id="hn5UzkTELU9L65x6MkT8-98" value="1" style="edgeLabel;resizable=0;html=1;align=right;verticalAlign=top;" connectable="0" vertex="1" parent="hn5UzkTELU9L65x6MkT8-96">
          <mxGeometry x="1" relative="1" as="geometry">
            <mxPoint y="-33" as="offset" />
          </mxGeometry>
        </mxCell>
        <mxCell id="hn5UzkTELU9L65x6MkT8-110" value="Setup_Wizard_Calculator" style="swimlane;fontStyle=0;align=center;verticalAlign=top;childLayout=stackLayout;horizontal=1;startSize=26;horizontalStack=0;resizeParent=1;resizeLast=0;collapsible=1;marginBottom=0;rounded=0;shadow=0;strokeWidth=1;" vertex="1" parent="WIyWlLk6GJQsqaUBKTNV-1">
          <mxGeometry x="1035" y="-1002" width="400" height="336" as="geometry">
            <mxRectangle x="1310" y="-1002" width="160" height="26" as="alternateBounds" />
          </mxGeometry>
        </mxCell>
        <mxCell id="hn5UzkTELU9L65x6MkT8-111" value="circle_steps: int" style="text;align=left;verticalAlign=top;spacingLeft=4;spacingRight=4;overflow=hidden;rotatable=0;points=[[0,0.5],[1,0.5]];portConstraint=eastwest;imageWidth=24;imageHeight=20;" vertex="1" parent="hn5UzkTELU9L65x6MkT8-110">
          <mxGeometry y="26" width="400" height="22" as="geometry" />
        </mxCell>
        <mxCell id="hn5UzkTELU9L65x6MkT8-124" value="port_manager: Port_Manager" style="text;align=left;verticalAlign=top;spacingLeft=4;spacingRight=4;overflow=hidden;rotatable=0;points=[[0,0.5],[1,0.5]];portConstraint=eastwest;imageWidth=24;imageHeight=20;" vertex="1" parent="hn5UzkTELU9L65x6MkT8-110">
          <mxGeometry y="48" width="400" height="20" as="geometry" />
        </mxCell>
        <mxCell id="hn5UzkTELU9L65x6MkT8-113" value="settings: {string: string}" style="text;align=left;verticalAlign=top;spacingLeft=4;spacingRight=4;overflow=hidden;rotatable=0;points=[[0,0.5],[1,0.5]];portConstraint=eastwest;imageWidth=24;imageHeight=20;" vertex="1" parent="hn5UzkTELU9L65x6MkT8-110">
          <mxGeometry y="68" width="400" height="22" as="geometry" />
        </mxCell>
        <mxCell id="hn5UzkTELU9L65x6MkT8-116" value="" style="line;html=1;strokeWidth=1;align=left;verticalAlign=middle;spacingTop=-1;spacingLeft=3;spacingRight=3;rotatable=0;labelPosition=right;points=[];portConstraint=eastwest;" vertex="1" parent="hn5UzkTELU9L65x6MkT8-110">
          <mxGeometry y="90" width="400" height="8" as="geometry" />
        </mxCell>
        <mxCell id="hn5UzkTELU9L65x6MkT8-117" value="get_settings(): boolean" style="text;align=left;verticalAlign=top;spacingLeft=4;spacingRight=4;overflow=hidden;rotatable=0;points=[[0,0.5],[1,0.5]];portConstraint=eastwest;imageWidth=24;imageHeight=20;" vertex="1" parent="hn5UzkTELU9L65x6MkT8-110">
          <mxGeometry y="98" width="400" height="22" as="geometry" />
        </mxCell>
        <mxCell id="hn5UzkTELU9L65x6MkT8-118" value="backlash_start(check_wheel_diameter: function,&#xa;configure_backlash_label: function, activate_back_button: function): void" style="text;align=left;verticalAlign=top;spacingLeft=4;spacingRight=4;overflow=hidden;rotatable=0;points=[[0,0.5],[1,0.5]];portConstraint=eastwest;imageWidth=24;imageHeight=20;" vertex="1" parent="hn5UzkTELU9L65x6MkT8-110">
          <mxGeometry y="120" width="400" height="40" as="geometry" />
        </mxCell>
        <mxCell id="hn5UzkTELU9L65x6MkT8-119" value="backlash_forward(): void" style="text;align=left;verticalAlign=top;spacingLeft=4;spacingRight=4;overflow=hidden;rotatable=0;points=[[0,0.5],[1,0.5]];portConstraint=eastwest;imageWidth=24;imageHeight=20;" vertex="1" parent="hn5UzkTELU9L65x6MkT8-110">
          <mxGeometry y="160" width="400" height="22" as="geometry" />
        </mxCell>
        <mxCell id="hn5UzkTELU9L65x6MkT8-125" value="backlash_moved(): void" style="text;align=left;verticalAlign=top;spacingLeft=4;spacingRight=4;overflow=hidden;rotatable=0;points=[[0,0.5],[1,0.5]];portConstraint=eastwest;imageWidth=24;imageHeight=20;" vertex="1" parent="hn5UzkTELU9L65x6MkT8-110">
          <mxGeometry y="182" width="400" height="22" as="geometry" />
        </mxCell>
        <mxCell id="hn5UzkTELU9L65x6MkT8-126" value="end_backlash(): void" style="text;align=left;verticalAlign=top;spacingLeft=4;spacingRight=4;overflow=hidden;rotatable=0;points=[[0,0.5],[1,0.5]];portConstraint=eastwest;imageWidth=24;imageHeight=20;" vertex="1" parent="hn5UzkTELU9L65x6MkT8-110">
          <mxGeometry y="204" width="400" height="22" as="geometry" />
        </mxCell>
        <mxCell id="hn5UzkTELU9L65x6MkT8-120" value="draw_for_diameter(): void" style="text;align=left;verticalAlign=top;spacingLeft=4;spacingRight=4;overflow=hidden;rotatable=0;points=[[0,0.5],[1,0.5]];portConstraint=eastwest;imageWidth=24;imageHeight=20;" vertex="1" parent="hn5UzkTELU9L65x6MkT8-110">
          <mxGeometry y="226" width="400" height="22" as="geometry" />
        </mxCell>
        <mxCell id="hn5UzkTELU9L65x6MkT8-121" value="calculate_wheel_diameter(length: float): void" style="text;align=left;verticalAlign=top;spacingLeft=4;spacingRight=4;overflow=hidden;rotatable=0;points=[[0,0.5],[1,0.5]];portConstraint=eastwest;imageWidth=24;imageHeight=20;" vertex="1" parent="hn5UzkTELU9L65x6MkT8-110">
          <mxGeometry y="248" width="400" height="22" as="geometry" />
        </mxCell>
        <mxCell id="hn5UzkTELU9L65x6MkT8-127" value="draw_for_axle(): void" style="text;align=left;verticalAlign=top;spacingLeft=4;spacingRight=4;overflow=hidden;rotatable=0;points=[[0,0.5],[1,0.5]];portConstraint=eastwest;imageWidth=24;imageHeight=20;" vertex="1" parent="hn5UzkTELU9L65x6MkT8-110">
          <mxGeometry y="270" width="400" height="22" as="geometry" />
        </mxCell>
        <mxCell id="hn5UzkTELU9L65x6MkT8-128" value="calculate_axle_length(length: float, length2: float): void" style="text;align=left;verticalAlign=top;spacingLeft=4;spacingRight=4;overflow=hidden;rotatable=0;points=[[0,0.5],[1,0.5]];portConstraint=eastwest;imageWidth=24;imageHeight=20;" vertex="1" parent="hn5UzkTELU9L65x6MkT8-110">
          <mxGeometry y="292" width="400" height="22" as="geometry" />
        </mxCell>
        <mxCell id="hn5UzkTELU9L65x6MkT8-123" value="save(): void" style="text;align=left;verticalAlign=top;spacingLeft=4;spacingRight=4;overflow=hidden;rotatable=0;points=[[0,0.5],[1,0.5]];portConstraint=eastwest;imageWidth=24;imageHeight=20;" vertex="1" parent="hn5UzkTELU9L65x6MkT8-110">
          <mxGeometry y="314" width="400" height="22" as="geometry" />
        </mxCell>
        <mxCell id="hn5UzkTELU9L65x6MkT8-129" value="Setup_Wizard" style="swimlane;fontStyle=0;align=center;verticalAlign=top;childLayout=stackLayout;horizontal=1;startSize=26;horizontalStack=0;resizeParent=1;resizeLast=0;collapsible=1;marginBottom=0;rounded=0;shadow=0;strokeWidth=1;" vertex="1" parent="WIyWlLk6GJQsqaUBKTNV-1">
          <mxGeometry x="635" y="-1002" width="330" height="576" as="geometry">
            <mxRectangle x="910" y="-1002" width="160" height="26" as="alternateBounds" />
          </mxGeometry>
        </mxCell>
        <mxCell id="hn5UzkTELU9L65x6MkT8-130" value="backend_magic:Â Setup_Wizard_Calculator" style="text;align=left;verticalAlign=top;spacingLeft=4;spacingRight=4;overflow=hidden;rotatable=0;points=[[0,0.5],[1,0.5]];portConstraint=eastwest;imageWidth=24;imageHeight=20;" vertex="1" parent="hn5UzkTELU9L65x6MkT8-129">
          <mxGeometry y="26" width="330" height="22" as="geometry" />
        </mxCell>
        <mxCell id="hn5UzkTELU9L65x6MkT8-131" value="paragraph_font: (string, int)" style="text;align=left;verticalAlign=top;spacingLeft=4;spacingRight=4;overflow=hidden;rotatable=0;points=[[0,0.5],[1,0.5]];portConstraint=eastwest;imageWidth=24;imageHeight=20;" vertex="1" parent="hn5UzkTELU9L65x6MkT8-129">
          <mxGeometry y="48" width="330" height="20" as="geometry" />
        </mxCell>
        <mxCell id="hn5UzkTELU9L65x6MkT8-149" value="pop_up_size: float" style="text;align=left;verticalAlign=top;spacingLeft=4;spacingRight=4;overflow=hidden;rotatable=0;points=[[0,0.5],[1,0.5]];portConstraint=eastwest;imageWidth=24;imageHeight=20;" vertex="1" parent="hn5UzkTELU9L65x6MkT8-129">
          <mxGeometry y="68" width="330" height="22" as="geometry" />
        </mxCell>
        <mxCell id="hn5UzkTELU9L65x6MkT8-132" value="turtle_image: CTkImage" style="text;align=left;verticalAlign=top;spacingLeft=4;spacingRight=4;overflow=hidden;rotatable=0;points=[[0,0.5],[1,0.5]];portConstraint=eastwest;imageWidth=24;imageHeight=20;" vertex="1" parent="hn5UzkTELU9L65x6MkT8-129">
          <mxGeometry y="90" width="330" height="22" as="geometry" />
        </mxCell>
        <mxCell id="hn5UzkTELU9L65x6MkT8-146" value="diameter_image:Â CTkImage" style="text;align=left;verticalAlign=top;spacingLeft=4;spacingRight=4;overflow=hidden;rotatable=0;points=[[0,0.5],[1,0.5]];portConstraint=eastwest;imageWidth=24;imageHeight=20;" vertex="1" parent="hn5UzkTELU9L65x6MkT8-129">
          <mxGeometry y="112" width="330" height="22" as="geometry" />
        </mxCell>
        <mxCell id="hn5UzkTELU9L65x6MkT8-144" value="axle_images: CTkImage []" style="text;align=left;verticalAlign=top;spacingLeft=4;spacingRight=4;overflow=hidden;rotatable=0;points=[[0,0.5],[1,0.5]];portConstraint=eastwest;imageWidth=24;imageHeight=20;" vertex="1" parent="hn5UzkTELU9L65x6MkT8-129">
          <mxGeometry y="134" width="330" height="22" as="geometry" />
        </mxCell>
        <mxCell id="hn5UzkTELU9L65x6MkT8-145" value="axle_image_first: boolean = True" style="text;align=left;verticalAlign=top;spacingLeft=4;spacingRight=4;overflow=hidden;rotatable=0;points=[[0,0.5],[1,0.5]];portConstraint=eastwest;imageWidth=24;imageHeight=20;" vertex="1" parent="hn5UzkTELU9L65x6MkT8-129">
          <mxGeometry y="156" width="330" height="22" as="geometry" />
        </mxCell>
        <mxCell id="hn5UzkTELU9L65x6MkT8-133" value="" style="line;html=1;strokeWidth=1;align=left;verticalAlign=middle;spacingTop=-1;spacingLeft=3;spacingRight=3;rotatable=0;labelPosition=right;points=[];portConstraint=eastwest;" vertex="1" parent="hn5UzkTELU9L65x6MkT8-129">
          <mxGeometry y="178" width="330" height="8" as="geometry" />
        </mxCell>
        <mxCell id="hn5UzkTELU9L65x6MkT8-157" value="setup_wizard(): void" style="text;align=left;verticalAlign=top;spacingLeft=4;spacingRight=4;overflow=hidden;rotatable=0;points=[[0,0.5],[1,0.5]];portConstraint=eastwest;imageWidth=24;imageHeight=20;" vertex="1" parent="hn5UzkTELU9L65x6MkT8-129">
          <mxGeometry y="186" width="330" height="22" as="geometry" />
        </mxCell>
        <mxCell id="hn5UzkTELU9L65x6MkT8-156" value="make_title(title_text: string): void" style="text;align=left;verticalAlign=top;spacingLeft=4;spacingRight=4;overflow=hidden;rotatable=0;points=[[0,0.5],[1,0.5]];portConstraint=eastwest;imageWidth=24;imageHeight=20;" vertex="1" parent="hn5UzkTELU9L65x6MkT8-129">
          <mxGeometry y="208" width="330" height="22" as="geometry" />
        </mxCell>
        <mxCell id="hn5UzkTELU9L65x6MkT8-155" value="make_paragraph(label_text: string): void" style="text;align=left;verticalAlign=top;spacingLeft=4;spacingRight=4;overflow=hidden;rotatable=0;points=[[0,0.5],[1,0.5]];portConstraint=eastwest;imageWidth=24;imageHeight=20;" vertex="1" parent="hn5UzkTELU9L65x6MkT8-129">
          <mxGeometry y="230" width="330" height="22" as="geometry" />
        </mxCell>
        <mxCell id="hn5UzkTELU9L65x6MkT8-134" value="make_button(frame: CTkFrame,&#xa;b_text: string, b_command: function): CTkButton" style="text;align=left;verticalAlign=top;spacingLeft=4;spacingRight=4;overflow=hidden;rotatable=0;points=[[0,0.5],[1,0.5]];portConstraint=eastwest;imageWidth=24;imageHeight=20;" vertex="1" parent="hn5UzkTELU9L65x6MkT8-129">
          <mxGeometry y="252" width="330" height="38" as="geometry" />
        </mxCell>
        <mxCell id="hn5UzkTELU9L65x6MkT8-135" value="basic_layout(layout: string): void" style="text;align=left;verticalAlign=top;spacingLeft=4;spacingRight=4;overflow=hidden;rotatable=0;points=[[0,0.5],[1,0.5]];portConstraint=eastwest;imageWidth=24;imageHeight=20;" vertex="1" parent="hn5UzkTELU9L65x6MkT8-129">
          <mxGeometry y="290" width="330" height="22" as="geometry" />
        </mxCell>
        <mxCell id="hn5UzkTELU9L65x6MkT8-136" value="validate_input(length): boolean" style="text;align=left;verticalAlign=top;spacingLeft=4;spacingRight=4;overflow=hidden;rotatable=0;points=[[0,0.5],[1,0.5]];portConstraint=eastwest;imageWidth=24;imageHeight=20;" vertex="1" parent="hn5UzkTELU9L65x6MkT8-129">
          <mxGeometry y="312" width="330" height="22" as="geometry" />
        </mxCell>
        <mxCell id="hn5UzkTELU9L65x6MkT8-137" value="make_length_inputs(two: boolean):Â void" style="text;align=left;verticalAlign=top;spacingLeft=4;spacingRight=4;overflow=hidden;rotatable=0;points=[[0,0.5],[1,0.5]];portConstraint=eastwest;imageWidth=24;imageHeight=20;" vertex="1" parent="hn5UzkTELU9L65x6MkT8-129">
          <mxGeometry y="334" width="330" height="22" as="geometry" />
        </mxCell>
        <mxCell id="hn5UzkTELU9L65x6MkT8-154" value="calibrate_backlash(): void" style="text;align=left;verticalAlign=top;spacingLeft=4;spacingRight=4;overflow=hidden;rotatable=0;points=[[0,0.5],[1,0.5]];portConstraint=eastwest;imageWidth=24;imageHeight=20;" vertex="1" parent="hn5UzkTELU9L65x6MkT8-129">
          <mxGeometry y="356" width="330" height="22" as="geometry" />
        </mxCell>
        <mxCell id="hn5UzkTELU9L65x6MkT8-138" value="check_backlash_main(): void" style="text;align=left;verticalAlign=top;spacingLeft=4;spacingRight=4;overflow=hidden;rotatable=0;points=[[0,0.5],[1,0.5]];portConstraint=eastwest;imageWidth=24;imageHeight=20;" vertex="1" parent="hn5UzkTELU9L65x6MkT8-129">
          <mxGeometry y="378" width="330" height="22" as="geometry" />
        </mxCell>
        <mxCell id="hn5UzkTELU9L65x6MkT8-140" value="calibrate_wheel_diameter(): void" style="text;align=left;verticalAlign=top;spacingLeft=4;spacingRight=4;overflow=hidden;rotatable=0;points=[[0,0.5],[1,0.5]];portConstraint=eastwest;imageWidth=24;imageHeight=20;" vertex="1" parent="hn5UzkTELU9L65x6MkT8-129">
          <mxGeometry y="400" width="330" height="22" as="geometry" />
        </mxCell>
        <mxCell id="hn5UzkTELU9L65x6MkT8-139" value="draw_diameter_button(first: boolean = False): void" style="text;align=left;verticalAlign=top;spacingLeft=4;spacingRight=4;overflow=hidden;rotatable=0;points=[[0,0.5],[1,0.5]];portConstraint=eastwest;imageWidth=24;imageHeight=20;" vertex="1" parent="hn5UzkTELU9L65x6MkT8-129">
          <mxGeometry y="422" width="330" height="22" as="geometry" />
        </mxCell>
        <mxCell id="hn5UzkTELU9L65x6MkT8-153" value="draw_for_diameter(): void" style="text;align=left;verticalAlign=top;spacingLeft=4;spacingRight=4;overflow=hidden;rotatable=0;points=[[0,0.5],[1,0.5]];portConstraint=eastwest;imageWidth=24;imageHeight=20;" vertex="1" parent="hn5UzkTELU9L65x6MkT8-129">
          <mxGeometry y="444" width="330" height="22" as="geometry" />
        </mxCell>
        <mxCell id="hn5UzkTELU9L65x6MkT8-152" value="diameter_length_check(): void" style="text;align=left;verticalAlign=top;spacingLeft=4;spacingRight=4;overflow=hidden;rotatable=0;points=[[0,0.5],[1,0.5]];portConstraint=eastwest;imageWidth=24;imageHeight=20;" vertex="1" parent="hn5UzkTELU9L65x6MkT8-129">
          <mxGeometry y="466" width="330" height="22" as="geometry" />
        </mxCell>
        <mxCell id="hn5UzkTELU9L65x6MkT8-150" value="calibrate_axle_length(): void" style="text;align=left;verticalAlign=top;spacingLeft=4;spacingRight=4;overflow=hidden;rotatable=0;points=[[0,0.5],[1,0.5]];portConstraint=eastwest;imageWidth=24;imageHeight=20;" vertex="1" parent="hn5UzkTELU9L65x6MkT8-129">
          <mxGeometry y="488" width="330" height="22" as="geometry" />
        </mxCell>
        <mxCell id="hn5UzkTELU9L65x6MkT8-141" value="set_axle_image(): void" style="text;align=left;verticalAlign=top;spacingLeft=4;spacingRight=4;overflow=hidden;rotatable=0;points=[[0,0.5],[1,0.5]];portConstraint=eastwest;imageWidth=24;imageHeight=20;" vertex="1" parent="hn5UzkTELU9L65x6MkT8-129">
          <mxGeometry y="510" width="330" height="22" as="geometry" />
        </mxCell>
        <mxCell id="hn5UzkTELU9L65x6MkT8-151" value="draw_for_axle(): void" style="text;align=left;verticalAlign=top;spacingLeft=4;spacingRight=4;overflow=hidden;rotatable=0;points=[[0,0.5],[1,0.5]];portConstraint=eastwest;imageWidth=24;imageHeight=20;" vertex="1" parent="hn5UzkTELU9L65x6MkT8-129">
          <mxGeometry y="532" width="330" height="22" as="geometry" />
        </mxCell>
        <mxCell id="hn5UzkTELU9L65x6MkT8-142" value="calculate_axle_length(length: float, length2: float): void" style="text;align=left;verticalAlign=top;spacingLeft=4;spacingRight=4;overflow=hidden;rotatable=0;points=[[0,0.5],[1,0.5]];portConstraint=eastwest;imageWidth=24;imageHeight=20;" vertex="1" parent="hn5UzkTELU9L65x6MkT8-129">
          <mxGeometry y="554" width="330" height="22" as="geometry" />
        </mxCell>
        <mxCell id="hn5UzkTELU9L65x6MkT8-158" value="has a" style="endArrow=open;html=1;endSize=12;startArrow=none;startSize=14;startFill=0;edgeStyle=orthogonalEdgeStyle;rounded=0;exitX=1;exitY=0.5;exitDx=0;exitDy=0;" edge="1" parent="WIyWlLk6GJQsqaUBKTNV-1" source="hn5UzkTELU9L65x6MkT8-132">
          <mxGeometry x="-0.1271" y="10" relative="1" as="geometry">
            <mxPoint x="735" y="-819" as="sourcePoint" />
            <mxPoint x="1035" y="-900" as="targetPoint" />
            <mxPoint as="offset" />
            <Array as="points">
              <mxPoint x="965" y="-900" />
              <mxPoint x="1033" y="-900" />
            </Array>
          </mxGeometry>
        </mxCell>
        <mxCell id="hn5UzkTELU9L65x6MkT8-159" value="1" style="edgeLabel;resizable=0;html=1;align=left;verticalAlign=top;" connectable="0" vertex="1" parent="hn5UzkTELU9L65x6MkT8-158">
          <mxGeometry x="-1" relative="1" as="geometry">
            <mxPoint y="-23" as="offset" />
          </mxGeometry>
        </mxCell>
        <mxCell id="hn5UzkTELU9L65x6MkT8-160" value="1" style="edgeLabel;resizable=0;html=1;align=right;verticalAlign=top;" connectable="0" vertex="1" parent="hn5UzkTELU9L65x6MkT8-158">
          <mxGeometry x="1" relative="1" as="geometry">
            <mxPoint x="-11" y="-23" as="offset" />
          </mxGeometry>
        </mxCell>
        <mxCell id="hn5UzkTELU9L65x6MkT8-164" value="has a" style="endArrow=open;html=1;endSize=12;startArrow=none;startSize=14;startFill=0;edgeStyle=orthogonalEdgeStyle;rounded=0;entryX=0.5;entryY=0;entryDx=0;entryDy=0;exitX=0.5;exitY=1;exitDx=0;exitDy=0;" edge="1" parent="WIyWlLk6GJQsqaUBKTNV-1" source="hn5UzkTELU9L65x6MkT8-81" target="hn5UzkTELU9L65x6MkT8-12">
          <mxGeometry x="-0.1429" y="18" relative="1" as="geometry">
            <mxPoint x="655" y="-857" as="sourcePoint" />
            <mxPoint x="1062" y="-890" as="targetPoint" />
            <mxPoint as="offset" />
            <Array as="points">
              <mxPoint x="417" y="-810" />
              <mxPoint x="417" y="-810" />
            </Array>
          </mxGeometry>
        </mxCell>
        <mxCell id="hn5UzkTELU9L65x6MkT8-165" value="1" style="edgeLabel;resizable=0;html=1;align=left;verticalAlign=top;" connectable="0" vertex="1" parent="hn5UzkTELU9L65x6MkT8-164">
          <mxGeometry x="-1" relative="1" as="geometry">
            <mxPoint x="6" y="-4" as="offset" />
          </mxGeometry>
        </mxCell>
        <mxCell id="hn5UzkTELU9L65x6MkT8-166" value="1" style="edgeLabel;resizable=0;html=1;align=right;verticalAlign=top;" connectable="0" vertex="1" parent="hn5UzkTELU9L65x6MkT8-164">
          <mxGeometry x="1" relative="1" as="geometry">
            <mxPoint x="15" y="-22" as="offset" />
          </mxGeometry>
        </mxCell>
        <mxCell id="hn5UzkTELU9L65x6MkT8-183" value="has a" style="endArrow=open;html=1;endSize=12;startArrow=none;startSize=14;startFill=0;edgeStyle=orthogonalEdgeStyle;rounded=0;exitX=1;exitY=0.5;exitDx=0;exitDy=0;entryX=0;entryY=0.5;entryDx=0;entryDy=0;" edge="1" parent="WIyWlLk6GJQsqaUBKTNV-1" source="DOuCb__6yNhxI4UDkO2R-4" target="hn5UzkTELU9L65x6MkT8-89">
          <mxGeometry x="-0.2051" y="12" relative="1" as="geometry">
            <mxPoint x="235" y="-720" as="sourcePoint" />
            <mxPoint x="555" y="-343" as="targetPoint" />
            <mxPoint as="offset" />
            <Array as="points">
              <mxPoint x="195" y="-958" />
            </Array>
          </mxGeometry>
        </mxCell>
        <mxCell id="hn5UzkTELU9L65x6MkT8-184" value="1" style="edgeLabel;resizable=0;html=1;align=left;verticalAlign=top;" connectable="0" vertex="1" parent="hn5UzkTELU9L65x6MkT8-183">
          <mxGeometry x="-1" relative="1" as="geometry">
            <mxPoint y="-22" as="offset" />
          </mxGeometry>
        </mxCell>
        <mxCell id="hn5UzkTELU9L65x6MkT8-185" value="1" style="edgeLabel;resizable=0;html=1;align=right;verticalAlign=top;" connectable="0" vertex="1" parent="hn5UzkTELU9L65x6MkT8-183">
          <mxGeometry x="1" relative="1" as="geometry">
            <mxPoint x="-14" y="-22" as="offset" />
          </mxGeometry>
        </mxCell>
        <mxCell id="hn5UzkTELU9L65x6MkT8-192" value="has a" style="endArrow=open;html=1;endSize=12;startArrow=none;startSize=14;startFill=0;edgeStyle=orthogonalEdgeStyle;rounded=0;entryX=0;entryY=0.5;entryDx=0;entryDy=0;exitX=1;exitY=0.5;exitDx=0;exitDy=0;" edge="1" parent="WIyWlLk6GJQsqaUBKTNV-1" source="hn5UzkTELU9L65x6MkT8-88" target="hn5UzkTELU9L65x6MkT8-132">
          <mxGeometry x="0.625" y="9" relative="1" as="geometry">
            <mxPoint x="595" y="-909" as="sourcePoint" />
            <mxPoint x="749" y="-800" as="targetPoint" />
            <mxPoint as="offset" />
            <Array as="points">
              <mxPoint x="585" y="-988" />
              <mxPoint x="585" y="-901" />
            </Array>
          </mxGeometry>
        </mxCell>
        <mxCell id="hn5UzkTELU9L65x6MkT8-193" value="1" style="edgeLabel;resizable=0;html=1;align=left;verticalAlign=top;" connectable="0" vertex="1" parent="hn5UzkTELU9L65x6MkT8-192">
          <mxGeometry x="-1" relative="1" as="geometry">
            <mxPoint x="4" y="-4" as="offset" />
          </mxGeometry>
        </mxCell>
        <mxCell id="hn5UzkTELU9L65x6MkT8-194" value="1" style="edgeLabel;resizable=0;html=1;align=right;verticalAlign=top;" connectable="0" vertex="1" parent="hn5UzkTELU9L65x6MkT8-192">
          <mxGeometry x="1" relative="1" as="geometry">
            <mxPoint y="-31" as="offset" />
          </mxGeometry>
        </mxCell>
      </root>
    </mxGraphModel>
  </diagram>
</mxfile>
